<?xml version="1.0" encoding="UTF-8" standalone="no"?>
<!DOCTYPE svg PUBLIC "-//W3C//DTD SVG 1.1//EN" "http://www.w3.org/Graphics/SVG/1.1/DTD/svg11.dtd">
<svg width="100%" height="100%" viewBox="0 0 64 64" version="1.1" xmlns="http://www.w3.org/2000/svg" xmlns:xlink="http://www.w3.org/1999/xlink" xml:space="preserve" xmlns:serif="http://www.serif.com/" style="fill-rule:evenodd;clip-rule:evenodd;stroke-linejoin:round;stroke-miterlimit:2;">
    <path d="M32.829,26.172C35.625,26.331 37.189,29.294 36.838,31.9C36.838,31.9 36.838,31.9 36.838,31.9C36.276,36.069 31.901,38.444 27.937,37.734C27.937,37.734 27.937,37.734 27.937,37.734C22.416,36.745 19.263,30.935 20.365,25.62C20.366,25.619 20.366,25.619 20.366,25.619C21.785,18.755 29.05,14.841 35.706,16.35C35.706,16.35 35.706,16.35 35.707,16.35C43.91,18.208 48.575,26.933 46.652,34.927C46.652,34.927 46.652,34.927 46.652,34.927C44.357,44.467 34.164,49.883 24.835,47.535C24.835,47.535 24.834,47.535 24.834,47.535C13.959,44.799 7.795,33.137 10.574,22.47C10.574,22.469 10.574,22.469 10.574,22.468C13.747,10.257 26.884,3.351 38.886,6.561C38.887,6.561 38.887,6.561 38.887,6.561C52.42,10.176 60.082,24.79 56.439,38.122C56.439,38.122 56.439,38.122 56.439,38.122C52.377,52.994 36.293,61.394 21.647,57.314C21.646,57.314 21.646,57.314 21.646,57.313C15.229,55.528 9.529,51.543 5.587,46.178C4.807,45.115 3.311,44.886 2.248,45.667C1.186,46.447 0.957,47.943 1.737,49.006C6.309,55.228 12.923,59.845 20.365,61.915C37.507,66.691 56.293,56.787 61.047,39.381C65.373,23.549 56.192,6.24 40.12,1.946C25.613,-1.933 9.787,6.507 5.951,21.266C2.519,34.443 10.236,48.788 23.669,52.167C35.512,55.149 48.383,48.155 51.296,36.044C53.826,25.53 47.553,14.135 36.762,11.691C27.575,9.608 17.648,15.176 15.688,24.65C14.058,32.512 18.929,40.974 27.095,42.436C33.628,43.606 40.646,39.408 41.572,32.539C42.275,27.324 38.696,21.722 33.101,21.403C31.785,21.328 30.655,22.336 30.58,23.652C30.506,24.968 31.513,26.098 32.829,26.172Z" style="fill:rgb(76,204,229);"/>
</svg>
